HIERARCHY
ROOT root
{
	OFFSET	0	13.1	24.9
	CHANNELS 6  Xposition Yposition Zposition Xrotation Yrotation Zrotation
	JOINT spine_1
	{
		OFFSET	0	9.99999	0
		CHANNELS 3  Xrotation Yrotation Zrotation
		JOINT spine_2
		{
			OFFSET	0	112	-10
			CHANNELS 3  Xrotation Yrotation Zrotation
			JOINT spine_3
			{
				OFFSET	0	206.5	19.3
				CHANNELS 3  Xrotation Yrotation Zrotation
				JOINT spine_4
				{
					OFFSET	0	110.4	14.6
					CHANNELS 3  Xrotation Yrotation Zrotation
					JOINT neck_1
					{
						OFFSET	0	71.8	-50.3
						CHANNELS 3  Xrotation Yrotation Zrotation
						JOINT neck_2
						{
							OFFSET	0	86.2	-25.8
							CHANNELS 3  Xrotation Yrotation Zrotation
							JOINT head_ee
							{
								OFFSET	0	179.8	-8.7
								CHANNELS 3  Xrotation Yrotation Zrotation
								End Site
								{
									OFFSET	1	0	0
								}
							}
						}
					}
					JOINT left_clavicle
					{
						OFFSET	-43.2	22.4	-70.8
						CHANNELS 3  Xrotation Yrotation Zrotation
						JOINT left_shoulder
						{
							OFFSET	-93.9	-5.79999	48.7
							CHANNELS 3  Xrotation Yrotation Zrotation
							JOINT left_elbow
							{
								OFFSET	-291.4	-30.8	15.2
								CHANNELS 3  Xrotation Yrotation Zrotation
								JOINT left_lowarm_twist
								{
									OFFSET	-110.7	-3.89999	13.6
									CHANNELS 3  Xrotation Yrotation Zrotation
									JOINT left_hand
									{
										OFFSET	-110.7	-3.89999	13.6
										CHANNELS 3  Xrotation Yrotation Zrotation
										JOINT left_ee
										{
											OFFSET	-80.8	-5.10001	12.1
											CHANNELS 3  Xrotation Yrotation Zrotation
											End Site
											{
												OFFSET	1	0	0
											}
										}
									}
								}
							}
						}
					}
					JOINT right_clavicle
					{
						OFFSET	43.2	22.4	-70.8
						CHANNELS 3  Xrotation Yrotation Zrotation
						JOINT right_shoulder
						{
							OFFSET	93.9	-5.79999	48.7
							CHANNELS 3  Xrotation Yrotation Zrotation
							JOINT right_elbow
							{
								OFFSET	291.4	-30.8	15.2
								CHANNELS 3  Xrotation Yrotation Zrotation
								JOINT right_lowarm_twist
								{
									OFFSET	110.7	-3.89999	13.6
									CHANNELS 3  Xrotation Yrotation Zrotation
									JOINT right_hand
									{
										OFFSET	110.7	-3.89999	13.6
										CHANNELS 3  Xrotation Yrotation Zrotation
										JOINT right_ee
										{
											OFFSET	80.8	-5.10001	12.1
											CHANNELS 3  Xrotation Yrotation Zrotation
											End Site
											{
												OFFSET	1	0	0
											}
										}
									}
								}
							}
						}
					}
				}
			}
		}
	}
	JOINT left_hip
	{
		OFFSET	-82.8	-127.5	0.300001
		CHANNELS 3  Xrotation Yrotation Zrotation
		JOINT left_knee
		{
			OFFSET	-28.2	-396.7	2.2
			CHANNELS 3  Xrotation Yrotation Zrotation
			JOINT left_ankle
			{
				OFFSET	-11.7	-411.3	35.4
				CHANNELS 3  Xrotation Yrotation Zrotation
				JOINT left_toes
				{
					OFFSET	0	-60	-88.6
					CHANNELS 3  Xrotation Yrotation Zrotation
					JOINT left_foot_ee
					{
						OFFSET	-22.5	-16.5	-42.2
						CHANNELS 3  Xrotation Yrotation Zrotation
						End Site
						{
							OFFSET	1	0	0
						}
					}
				}
			}
		}
	}
	JOINT right_hip
	{
		OFFSET	82.8	-127.5	0.300001
		CHANNELS 3  Xrotation Yrotation Zrotation
		JOINT right_knee
		{
			OFFSET	28.2	-396.7	2.2
			CHANNELS 3  Xrotation Yrotation Zrotation
			JOINT right_ankle
			{
				OFFSET	11.7	-411.3	35.4
				CHANNELS 3  Xrotation Yrotation Zrotation
				JOINT right_toes
				{
					OFFSET	0	-60	-88.6
					CHANNELS 3  Xrotation Yrotation Zrotation
					JOINT right_foot_ee
					{
						OFFSET	22.5	-16.5	-42.2
						CHANNELS 3  Xrotation Yrotation Zrotation
						End Site
						{
							OFFSET	1	0	0
						}
					}
				}
			}
		}
	}
}
MOTION
Frames: 6
Frame Time: 0.02
370.06 752.292 -1298.69 177.956 -62.8231 -177.54 -2.71605 -0.515564 -0.924719 -2.71569 -0.455679 -0.955648 -2.70728 -0.195767 -1.04047 -2.70861 -0.357624 -0.996497 3.26406 8.70338 1.92257 3.43792 13.505 2.72212 -0.0 0.0 -0.0 11.0202 11.4024 20.59 -24.6032 -41.1763 44.5113 0.511636 -14.2223 0.0638292 -33.3257 -2.27092 3.54128 0.2909 28.9892 12.9441 -0.0 0.0 -0.0 6.23823 -2.20085 -12.1048 -10.09 29.9383 -55.2126 0.778937 21.0997 -0.14507 47.15 0.772419 5.80587 1.32544 -10.2393 -12.8323 0.0 0.0 0.0 10.3811 -28.0906 -0.161254 -24.7756 0.20847 3.76678 23.6527 27.5959 -3.39344 33.2526 -0.0 -0.0 -0.0 0.0 -0.0 2.25591 -39.1548 2.87678 4.23362 0.197348 0.619441 5.67548 -26.7622 0.863158 -2.43991 0.0 0.0 0.0 0.0 0.0 
373.67 750.435 -1302.09 177.832 -62.5219 -177.696 -2.84065 -0.531057 -1.07064 -2.84013 -0.461858 -1.10225 -2.83016 -0.161661 -1.18411 -2.83195 -0.346628 -1.14373 3.6389 9.49165 3.4113 3.8204 13.5415 4.41655 -0.0 0.0 -0.0 10.9643 10.4536 20.617 -26.4436 -43.3642 43.0564 0.577893 -15.9751 0.0810901 -34.2379 -2.36024 3.61686 0.23586 28.9488 12.6263 -0.0 0.0 -0.0 6.45299 -1.88827 -12.5197 -9.27756 29.7236 -55.1689 0.790083 21.3745 -0.149108 47.3885 0.788263 5.83197 1.16062 -11.5851 -12.2429 0.0 0.0 0.0 10.0233 -27.175 0.300612 -23.8244 0.230665 3.6225 28.107 28.8392 -3.98392 32.9499 -0.0 -0.0 -0.0 0.0 -0.0 2.61817 -38.3176 2.5975 2.78067 0.124455 0.408481 9.49442 -26.123 1.423 -1.40353 0.0 0.0 0.0 0.0 0.0 
377.554 751.582 -1304.9 176.87 -62.6026 -178.413 -3.0406 -0.544212 -1.19304 -3.03993 -0.467198 -1.22525 -3.02856 -0.130554 -1.30477 -3.03078 -0.334964 -1.26779 -2.14434 9.32138 4.39958 -2.02918 13.3852 5.84698 -0.0 0.0 -0.0 10.7062 10.2 20.1621 -25.481 -42.8325 43.9494 0.718106 -19.5819 0.123923 -33.6476 -2.30231 3.56812 0.494709 28.2412 13.8388 -0.0 0.0 -0.0 6.47329 -1.99099 -12.5592 -9.09527 29.4147 -54.7301 0.789167 21.3519 -0.148774 47.4842 0.79465 5.84242 1.10632 -12.6219 -12.2658 0.0 0.0 0.0 9.584 -26.2882 0.474834 -23.7471 0.232364 3.61075 28.9245 29.2379 -4.09526 33.2791 -0.0 -0.0 -0.0 0.0 -0.0 2.1102 -37.6709 2.70664 3.45778 0.157758 0.507019 9.81712 -25.0986 1.46156 -1.53491 0.0 0.0 0.0 0.0 0.0 
386.781 758.278 -1307.21 179.599 -63.3707 -175.236 -3.02919 -0.512447 -1.40838 -3.02819 -0.4218 -1.43812 -3.0158 -0.0313875 -1.49836 -3.01884 -0.267606 -1.47461 1.68564 9.90797 4.32734 1.85789 13.8322 5.57311 -0.0 0.0 -0.0 10.6662 9.11417 20.2205 -24.6349 -44.0107 43.0122 0.801283 -21.6496 0.153215 -35.1486 -2.45062 3.69091 0.276961 29.154 12.9211 -0.0 0.0 -0.0 6.1245 -4.16613 -11.8905 -9.4474 28.9883 -54.7549 0.834071 22.449 -0.165524 46.0652 0.701733 5.68636 1.55488 -12.4142 -15.1159 0.0 0.0 0.0 9.77963 -26.2202 -0.430869 -22.6823 0.254145 3.44881 27.4516 27.5012 -3.86734 32.3974 -0.0 -0.0 -0.0 0.0 -0.0 5.46586 -35.2582 1.58017 2.1982 0.096743 0.323414 7.91401 -24.3267 1.18021 -0.597698 0.0 0.0 0.0 0.0 0.0 
389.214 756.663 -1308.97 -179.398 -62.5375 -173.302 -2.84295 -0.409264 -1.82861 -2.84114 -0.292096 -1.85093 -2.82911 0.195687 -1.86359 -2.83394 -0.101035 -1.87111 0.899743 9.40647 3.35201 1.05255 13.8931 4.51763 -0.0 0.0 -0.0 10.3679 7.60447 19.8148 -24.2122 -44.6932 42.8132 0.931369 -24.7669 0.204497 -36.1705 -2.55341 3.77228 -0.200736 27.4244 9.67329 -0.0 0.0 -0.0 5.8689 -6.53145 -11.4069 -9.86827 29.4797 -54.6504 0.973827 25.7524 -0.222616 45.0225 0.635947 5.57027 1.38601 -12.906 -14.1827 0.0 0.0 0.0 8.54554 -27.2925 -1.81998 -21.2919 0.278047 3.23681 30.2585 27.4526 -4.20207 31.8946 -0.0 -0.0 -0.0 0.0 -0.0 7.25785 -33.7235 0.116855 0.729567 0.030729 0.107738 5.65649 -24.9173 0.851527 -0.52164 0.0 0.0 0.0 0.0 0.0 
397.325 753.284 -1310.68 -179.158 -61.579 -172.88 -2.84605 -0.416053 -1.88795 -2.84412 -0.295098 -1.91058 -2.83152 0.208274 -1.92198 -2.83667 -0.0978234 -1.93076 0.704194 8.59665 1.88137 0.84384 13.7005 2.86223 -0.0 0.0 -0.0 10.3939 6.79335 19.9476 -23.2729 -44.8413 40.992 0.927034 -24.6654 0.202685 -35.8421 -2.52021 3.74633 -0.222769 22.9216 7.86521 -0.0 0.0 -0.0 5.68462 -6.99897 -11.0672 -9.17222 29.5138 -54.1431 0.972591 25.724 -0.222079 45.7818 0.683643 5.65493 1.19609 -12.5161 -12.8094 0.0 0.0 0.0 9.82955 -22.3116 -1.9943 -23.4968 0.237755 3.57272 32.6912 27.8243 -4.49343 31.052 -0.0 -0.0 -0.0 0.0 -0.0 5.61016 -35.5443 -0.910997 2.94629 0.132493 0.432619 8.96748 -25.7052 1.34299 -0.184182 0.0 0.0 0.0 0.0 0.0 
